<?xml version="1.0" encoding="utf-8"?>
<!-- Generator: Adobe Illustrator 27.5.0, SVG Export Plug-In . SVG Version: 6.00 Build 0)  -->
<svg version="1.1" id="Capa_1" xmlns="http://www.w3.org/2000/svg" xmlns:xlink="http://www.w3.org/1999/xlink" x="0px" y="0px"
	 viewBox="0 0 425.2 425.2" style="enable-background:new 0 0 425.2 425.2;" xml:space="preserve">
<rect x="0.002" y="0.002" style="fill:#FFFFFF;" width="425.195" height="425.197"/>
<path style="fill:#706F6F;" d="M265.736,349.275c-81.717,0-147.963,10.022-147.963,22.383c0,2.852,3.532,5.578,9.959,8.086
	c-61.829,0.369-111.033,6.628-111.033,14.297c0,7.906,52.3,14.315,116.814,14.315c64.516,0,116.814-6.408,116.814-14.315
	c0-0.04-0.01-0.08-0.013-0.121c5.069,0.08,10.213,0.121,15.421,0.121c81.718,0,147.963-10.021,147.963-22.383
	C413.699,359.297,347.454,349.275,265.736,349.275z"/>
<g>
	<path style="fill:#5E6F3C;" d="M226.721,91.242c0,6.172,69.42,24.553,72.559,2.154c3.137-22.404,17.717-25.094,15.233-50.184
		c-0.888-8.984-15.233,8.962-32.314-0.628c-12.699-7.128-28.853,9.354-36.686,8.695c-17.011-1.437-29.179-12.654-31.811-7.171
		C207.178,57.695,226.721,78.694,226.721,91.242z"/>
	<path style="fill:#728549;" d="M285.298,44.048c-1.02-0.399-2.054-0.875-3.1-1.463c-10.491-5.89-23.338,4.329-31.903,7.69
		c5.635,10.157,7.26,23.616,8.143,34.442c0.486,5.96,0.64,11.92,0.598,17.882c2.966,0.49,5.968,0.887,8.926,1.164
		C269.719,82.85,274.861,62.485,285.298,44.048z"/>
	<path style="fill:#576738;" d="M294.293,82.722c-4.853,1.759-9.573,3.445-14.728,4.066c-5.136,0.612-9.697-0.647-14.787-1.013
		c-8.743-0.626-17.153,1.513-25.644-1.514c-6.757-2.409-12.634-7.894-16.569-13.768c-2.905-4.333-5.268-9.031-8.868-12.413
		c3.546,11.58,13.024,24.42,13.024,33.161c0,6.172,69.42,24.553,72.559,2.154c0.799-5.7,2.338-10.118,4.147-13.961
		C300.511,80.611,297.483,81.559,294.293,82.722z"/>
	<path style="fill:#4F5E32;" d="M261.132,101.271c1.657-16.078-7.382-44.56-7.382-44.56s7.159,28.841,2.293,50.946
		C255.122,111.609,261.132,101.271,261.132,101.271z"/>
	<path style="fill:#4F5E32;" d="M267.608,95.407c1.405-16.108,13.677-43.642,13.677-43.642s-9.707,28.318-9.105,50.944
		C272.343,106.766,267.608,95.407,267.608,95.407z"/>
	<path style="fill:#4F5E32;" d="M246.648,96.678c-7.7-16.746-7.971-28.544-7.971-28.544s2.887,10.536,15.906,32.04
		C256.957,103.978,246.648,96.678,246.648,96.678z"/>
	<path style="fill:#4F5E32;" d="M234.665,98.586h5.277c-11.88-17.059-18.575-36.92-18.575-36.92S226.623,82.838,234.665,98.586z"/>
	<path style="fill:#6C7E45;" d="M229.59,79.066c0,0-2.591-7.037-4.096-12.379c-1.504-5.342-7.473-21.068-7.473-21.068
		s4.571,17.623,5.73,20.988C224.909,69.977,229.59,79.066,229.59,79.066z"/>
	<path style="fill:#6C7E45;" d="M240.252,84.704c0,0-2.721-12.082-3.363-16.799c-1.107-8.118-2.699-14.372-2.699-14.372
		s0.275,8.437,0.671,11.465C235.641,70.957,240.252,84.704,240.252,84.704z"/>
	<path style="fill:#6C7E45;" d="M289.015,85.472c0,0,8.048-17.304,9.587-20.934c2.656-6.247,9.59-20.936,9.59-20.936
		s-3.714,15.686-7.029,21.253C296.355,72.932,289.015,85.472,289.015,85.472z"/>
	<path style="fill:#5E6F3C;" d="M305.845,116.021c-11.494-10.081-73.217-12.472-84.589,0
		c-11.369,12.476-113.069,112.237-80.811,231.193c10.848,40.007,77.487,37.449,119.631,40.995
		c42.142,3.554,117.54,0.75,124.333-40.995C407.261,206.75,317.341,126.103,305.845,116.021z"/>
	<path style="fill:#4F5E32;" d="M338.533,364.088c-31.273,7.648-66.162,9.738-97.937,3.966
		c-29.479-5.356-58.89-21.392-72.687-49.066c-12.634-25.343-14.395-54.935-11.317-82.687c1.786-16.105,4.954-32.069,9.571-47.602
		c-23.623,41.708-42.241,97.591-25.72,158.515c10.848,40.007,77.487,37.449,119.631,40.995c42.142,3.554,117.54,0.75,124.333-40.995
		c0.235-1.449,0.439-2.88,0.654-4.318C371.796,353.635,354.674,360.145,338.533,364.088z"/>
	<path style="fill:#4F5E32;" d="M303.522,259.976c-2.079-3.826-4.899-7.188-8.389-9.989c-3.332-2.67-7.202-5.02-11.5-6.977
		c-3.27-1.487-6.695-2.91-10.213-4.243l0.081-29.659c0.999,0.53,1.892,1.185,2.692,1.963c1.673,1.623,2.487,3.967,2.487,7.162v3.01
		v3.498l3.463,0.495c1.687,0.239,3.361,0.364,4.979,0.364c1.832,0,3.646-0.221,5.391-0.658c1.863-0.466,3.583-1.209,5.103-2.208
		c1.636-1.073,2.982-2.448,4.005-4.083c1.121-1.797,1.689-3.926,1.689-6.334c0-4.59-1.455-8.402-4.331-11.326
		c-2.513-2.553-5.619-4.553-9.227-5.938c-3.385-1.298-7.01-2.175-10.773-2.606c-1.931-0.219-3.744-0.394-5.433-0.519l0.078-9.91
		l0.038-4.552l-4.526,0.512l-8.494,0.968l-3.578,0.411v3.598v9.583c-3.299,0.523-6.492,1.316-9.534,2.359
		c-4.309,1.475-8.148,3.572-11.406,6.227c-3.343,2.727-6.038,6.15-8.011,10.173c-1.984,4.055-2.992,8.811-2.992,14.143
		c0,5.367,1.059,10.118,3.144,14.125c2.019,3.876,4.741,7.315,8.09,10.214c3.228,2.805,6.985,5.248,11.163,7.256
		c3.143,1.514,6.418,2.953,9.762,4.287v32.579c-2.262-0.582-4.057-1.515-5.361-2.783c-1.939-1.889-2.921-4.985-2.921-9.211v-3.122
		v-3.498l-3.464-0.492c-1.685-0.242-3.396-0.361-5.085-0.361c-1.922,0-3.81,0.241-5.616,0.726c-1.91,0.515-3.646,1.304-5.165,2.347
		c-1.66,1.139-2.997,2.609-3.981,4.373c-1.016,1.818-1.533,3.926-1.533,6.265c0,5.024,1.585,9.18,4.71,12.349
		c2.762,2.805,6.141,4.982,10.036,6.475c3.667,1.408,7.561,2.355,11.568,2.821c2.489,0.293,4.779,0.486,6.846,0.59l0.076,9.528
		l0.04,4.917l4.814-1.002l7.743-1.615l3.212-0.666v-3.281v-8.914c3.547-0.647,6.987-1.581,10.268-2.789
		c4.51-1.661,8.519-3.962,11.913-6.837c3.468-2.939,6.255-6.571,8.288-10.794c2.049-4.265,3.086-9.302,3.086-14.979
		C306.75,268.629,305.664,263.931,303.522,259.976z M252.653,229.148c-1.167-1.168-2.072-2.494-2.771-4.063
		c-0.66-1.479-0.994-3.31-0.994-5.456c0-1.756,0.303-3.297,0.906-4.574c0.651-1.386,1.493-2.555,2.57-3.579
		c1.072-1.018,2.381-1.853,3.887-2.485c0.271-0.111,0.547-0.219,0.828-0.322l0.07,23.826c-0.047-0.026-0.097-0.052-0.148-0.08
		C255.357,231.49,253.896,230.39,252.653,229.148z M273.285,267.204c0.223,0.108,0.441,0.221,0.663,0.333
		c1.781,0.905,3.364,1.984,4.704,3.205c1.255,1.145,2.232,2.43,2.982,3.931c0.681,1.361,1.026,3.036,1.026,4.973
		c0,2.017-0.343,3.831-1.016,5.395c-0.7,1.618-1.636,3.005-2.858,4.233c-1.252,1.249-2.766,2.306-4.495,3.142
		c-0.354,0.173-0.716,0.334-1.083,0.486L273.285,267.204z"/>
	<path style="fill:#4F5E32;" d="M294.799,308.906c25.09-7.168,41.221-60.487,39.427-74.375"/>
	<path style="fill:#4F5E32;" d="M226.395,113.557c-13.162,16.745-22.424,54.077-22.424,54.077s11.861-35.207,32.279-55.869
		C239.946,108.122,226.395,113.557,226.395,113.557z"/>
	<path style="fill:#4F5E32;" d="M245.885,96.276c-13.16,16.748-22.423,54.077-22.423,54.077s11.861-35.206,32.278-55.867
		C259.435,90.844,245.885,96.276,245.885,96.276z"/>
	<path style="fill:#4F5E32;" d="M247.754,95.032c-11.3,14.877-16.586,45.395-16.586,45.395s8.084-29.193,26.168-48.101
		C260.622,88.981,247.754,95.032,247.754,95.032z"/>
	<path style="fill:#4F5E32;" d="M261.105,106.017c-11.301,14.874-16.585,45.393-16.585,45.393s8.087-29.193,26.171-48.101
		C273.975,99.967,261.105,106.017,261.105,106.017z"/>
	<path style="fill:#4F5E32;" d="M264.358,100.707c-9.314,16.193-10.673,47.136-10.673,47.136s4.304-29.985,19.835-51.038
		C276.353,93.068,264.358,100.707,264.358,100.707z"/>
	<path style="fill:#4F5E32;" d="M295.791,107.783c13.161,16.742,22.422,54.072,22.422,54.072s-11.86-35.207-32.278-55.864
		C282.236,102.347,295.791,107.783,295.791,107.783z"/>
	<path style="fill:#4F5E32;" d="M277.848,105.525c8.9,19.352,9.213,57.813,9.213,57.813s-3.335-36.999-18.379-61.851
		C265.932,97.088,277.848,105.525,277.848,105.525z"/>
	<path style="fill:#4F5E32;" d="M283.356,101.909h-6.099c13.728,19.716,21.465,42.671,21.465,42.671S292.654,120.11,283.356,101.909
		z"/>
	<path style="fill:#4F5E32;" d="M278.08,104.595c8.85,15.315,12.936,30.058,12.936,30.058s-2.72-15.691-8.422-30.058H278.08z"/>
	<path style="fill:#F39200;stroke:#F9B233;stroke-width:4.2677;stroke-miterlimit:10;" d="M308.191,95.582
		c0-2.398-2.174-4.34-4.859-4.34h-76.611c-2.689,0-4.864,1.941-4.864,4.34c0,0.96,0.36,1.84,0.953,2.561
		c-1.419,0.759-2.378,2.127-2.378,3.712c0,1.491,0.842,2.806,2.123,3.585c-1.281,0.78-2.123,2.092-2.123,3.586
		c0,2.394,2.174,4.34,4.859,4.34h76.615c2.686,0,4.86-1.946,4.86-4.34c0-1.494-0.841-2.806-2.123-3.586
		c1.282-0.779,2.123-2.094,2.123-3.585c0-0.963-0.359-1.84-0.953-2.561C307.233,98.538,308.191,97.166,308.191,95.582z"/>
	<path style="fill:#6C7E45;" d="M304.768,117.702c0,0,3.36,7.989,5.376,14.071c2.017,6.088,5.547,17.011,5.547,17.011
		s-2.017-13.178-3.53-17.011C310.647,127.95,304.768,117.702,304.768,117.702z"/>
	<path style="fill:#6C7E45;" d="M293.972,124.653c0,0,2.996,8.133,4.734,14.304c1.739,6.175,4.77,17.244,4.77,17.244
		s-1.419-13.261-2.756-17.15C299.383,135.156,293.972,124.653,293.972,124.653z"/>
	<path style="fill:#6C7E45;" d="M241.93,154.103c0,0,2.399-13.665,4.651-19.667c2.25-6.002,6.36-16.721,6.36-16.721
		s-6.707,11.527-7.931,15.457C243.784,137.1,241.93,154.103,241.93,154.103z"/>
	<path style="fill:#6C7E45;" d="M283.25,121.808c0,0,3.139,13.965,3.883,19.417c1.278,9.375,3.884,34.443,3.884,34.443
		s-1.081-27.586-1.538-31.088C288.577,137.693,283.25,121.808,283.25,121.808z"/>
	<path style="fill:#6C7E45;" d="M232.071,118.27c0,0-12.338,20.92-14.599,25.935c-3.89,8.63-13.502,31.921-13.502,31.921
		s8.954-26.106,10.302-29.371C219.266,134.652,232.071,118.27,232.071,118.27z"/>
	<path style="fill:#6C7E45;" d="M221.367,118.27c0,0-6.975,12.496-9.234,17.514C208.245,144.408,205.86,155,205.86,155
		s1.641-13.44,3.072-16.667C211.75,131.987,221.367,118.27,221.367,118.27z"/>
	<path style="fill:#6C7E45;" d="M329.448,142.984c0,0,14.101,24.14,18.709,33.85c7.925,16.702,27.593,52.429,27.593,52.429
		s-11.951-31.92-21.248-47.572C347.577,170.037,329.448,142.984,329.448,142.984z"/>
	<path style="fill:#6C7E45;" d="M335.494,161.855c0,0,14.102,24.143,18.709,33.85c7.926,16.707,27.595,61.826,27.595,61.826
		s-18.322-50.719-21.249-56.965C354.805,188.284,335.494,161.855,335.494,161.855z"/>
	<path style="fill:#6C7E45;" d="M334.361,167.634c0,0,14.129,24.128,18.71,33.845c17.223,36.54,28.727,87.532,28.727,87.532
		s-8.622-51.134-22.38-82.672C353.995,193.911,334.361,167.634,334.361,167.634z"/>
	<g>
		<path style="fill:#F9B233;" d="M227.814,97.65c0,0,4.268-0.464,10.67-0.804c1.6-0.089,3.334-0.185,5.168-0.248
			c1.835-0.071,3.769-0.161,5.77-0.2c2.001-0.041,4.068-0.123,6.17-0.136c2.101-0.022,4.235-0.045,6.369-0.067
			c2.135,0.008,4.27,0.016,6.371,0.024c2.101-0.006,4.169,0.066,6.17,0.095c4.002,0.08,7.738,0.212,10.941,0.376
			c6.404,0.298,10.675,0.736,10.675,0.736s-4.268,0.467-10.67,0.807c-3.201,0.185-6.936,0.341-10.938,0.448
			c-2.001,0.04-4.068,0.127-6.17,0.134c-2.101,0.022-4.235,0.045-6.369,0.066c-2.135-0.008-4.27-0.017-6.371-0.025
			c-2.101,0.002-4.169-0.067-6.17-0.096c-2.001-0.025-3.936-0.103-5.771-0.162c-1.834-0.051-3.569-0.136-5.17-0.214
			C232.085,98.086,227.814,97.65,227.814,97.65z"/>
	</g>
	<g>
		<path style="fill:#F9B233;" d="M229.43,104.847c0,0,2.61-0.366,6.527-0.637c1.959-0.146,4.244-0.271,6.693-0.358
			c1.224-0.034,2.488-0.1,3.774-0.111c1.286-0.02,2.592-0.038,3.898-0.058c1.306,0.005,2.612,0.01,3.898,0.015
			c1.286-0.007,2.552,0.049,3.776,0.068c2.45,0.061,4.736,0.161,6.696,0.286c3.92,0.228,6.534,0.568,6.534,0.568
			s-2.61,0.368-6.527,0.64c-1.959,0.146-4.244,0.271-6.692,0.357c-1.225,0.034-2.49,0.104-3.775,0.11
			c-1.286,0.019-2.592,0.038-3.898,0.057c-1.306-0.005-2.612-0.011-3.898-0.016c-1.285,0.003-2.551-0.05-3.775-0.07
			c-2.45-0.062-4.736-0.161-6.696-0.286C232.044,105.184,229.43,104.847,229.43,104.847z"/>
	</g>
	<g>
		<path style="fill:#F9B233;" d="M250.038,102.021c0,0,3.401-0.416,8.503-0.721c2.552-0.166,5.528-0.307,8.718-0.405
			c1.595-0.038,3.242-0.112,4.917-0.124c1.675-0.021,3.376-0.041,5.077-0.063c1.701,0.006,3.402,0.013,5.077,0.02
			c1.675-0.007,3.323,0.058,4.918,0.081c3.191,0.071,6.168,0.188,8.721,0.332c5.105,0.264,8.509,0.653,8.509,0.653
			s-3.401,0.418-8.503,0.725c-2.552,0.166-5.528,0.307-8.718,0.404c-1.595,0.037-3.242,0.114-4.917,0.122
			c-1.675,0.021-3.376,0.041-5.077,0.062c-1.701-0.007-3.402-0.014-5.077-0.021c-1.675,0.002-3.323-0.059-4.918-0.083
			c-3.191-0.072-6.168-0.188-8.721-0.332C253.442,102.408,250.038,102.021,250.038,102.021z"/>
	</g>
	<g>
		<path style="fill:#F9B233;" d="M227.814,109.459c0,0,4.584-0.479,11.46-0.831c1.719-0.092,3.581-0.191,5.551-0.257
			c1.97-0.074,4.047-0.166,6.196-0.206c2.148-0.043,4.369-0.128,6.626-0.141c2.257-0.022,4.549-0.046,6.842-0.069
			c2.292,0.009,4.585,0.018,6.841,0.026c2.257-0.007,4.478,0.069,6.627,0.099c4.299,0.084,8.311,0.221,11.75,0.391
			c6.879,0.311,11.465,0.766,11.465,0.765s-4.584,0.482-11.46,0.835c-3.438,0.191-7.449,0.352-11.747,0.463
			c-2.148,0.041-4.369,0.131-6.626,0.139c-2.257,0.021-4.549,0.045-6.842,0.067c-2.292-0.009-4.585-0.019-6.841-0.027
			c-2.257,0.001-4.478-0.07-6.627-0.101c-2.149-0.026-4.228-0.106-6.197-0.168c-1.971-0.054-3.834-0.142-5.553-0.223
			C232.4,109.911,227.814,109.459,227.814,109.459z"/>
	</g>
	<g>
		<g>
			<g>
				<path style="fill:#F39200;" d="M257.678,305.934c-2.47-0.053-5.358-0.27-8.608-0.646c-3.842-0.45-7.57-1.357-11.083-2.697
					c-3.635-1.397-6.77-3.421-9.322-6.015c-2.738-2.774-4.128-6.453-4.128-10.931c0-1.986,0.429-3.764,1.274-5.283
					c0.837-1.492,1.968-2.732,3.362-3.691c1.331-0.912,2.859-1.604,4.546-2.059c1.642-0.44,3.355-0.664,5.096-0.664
					c1.6,0,3.216,0.115,4.804,0.343l1.73,0.248v4.87c0,4.789,1.188,8.373,3.53,10.652c2.027,1.977,4.976,3.245,8.782,3.784v-36.391
					c-3.726-1.451-7.389-3.04-10.905-4.734c-4.02-1.938-7.626-4.279-10.717-6.962c-3.15-2.73-5.714-5.968-7.619-9.623
					c-1.936-3.715-2.917-8.155-2.917-13.197c0-5.02,0.939-9.479,2.788-13.25c1.838-3.759,4.352-6.956,7.473-9.501
					c3.073-2.501,6.701-4.479,10.785-5.881c3.453-1.183,7.111-2.03,10.898-2.526v-13.124l12.546-1.43l-0.109,14.094
					c2.162,0.116,4.586,0.328,7.235,0.633c3.602,0.414,7.06,1.25,10.279,2.485c3.341,1.283,6.205,3.125,8.512,5.473
					c2.488,2.531,3.751,5.865,3.751,9.91c0,2.025-0.465,3.796-1.381,5.263c-0.875,1.392-2.018,2.557-3.397,3.466
					c-1.345,0.877-2.853,1.527-4.49,1.938c-1.578,0.396-3.229,0.599-4.901,0.599c-1.531,0-3.111-0.116-4.696-0.344l-1.729-0.249
					v-4.76c0-3.768-1.013-6.584-3.098-8.608c-1.651-1.605-3.698-2.775-6.107-3.493l-0.096,34.034
					c3.925,1.452,7.753,3.025,11.398,4.683c4.142,1.884,7.868,4.142,11.073,6.711c3.282,2.637,5.933,5.793,7.88,9.384
					c1.98,3.648,2.985,8.023,2.985,13.003c0,5.373-0.972,10.118-2.887,14.102c-1.907,3.969-4.522,7.379-7.772,10.135
					c-3.215,2.723-7.021,4.903-11.311,6.48c-3.669,1.355-7.56,2.355-11.586,2.98v12.261l-11.755,2.443L257.678,305.934z
					 M269.553,293.232c1.383-0.384,2.716-0.885,3.984-1.497c1.935-0.936,3.634-2.125,5.046-3.535
					c1.388-1.392,2.493-3.027,3.283-4.858c0.782-1.814,1.179-3.898,1.179-6.194c0-2.255-0.416-4.23-1.237-5.873
					c-0.851-1.7-2.004-3.222-3.43-4.521c-1.477-1.345-3.208-2.524-5.145-3.508c-1.162-0.592-2.36-1.158-3.587-1.694L269.553,293.232
					z M257.455,203.497c-1.266,0.281-2.476,0.661-3.615,1.137c-1.736,0.729-3.25,1.699-4.497,2.884
					c-1.244,1.179-2.255,2.586-3.006,4.182c-0.729,1.551-1.098,3.379-1.098,5.434c0,2.43,0.394,4.539,1.169,6.271
					c0.789,1.773,1.861,3.344,3.188,4.673c1.374,1.375,2.98,2.582,4.776,3.589c1.026,0.58,2.086,1.139,3.173,1.672L257.455,203.497z
					"/>
				<path style="fill:#F9B233;" d="M267.959,179.486l-0.107,13.767c2.58,0.072,5.593,0.307,9.036,0.702
					c3.44,0.396,6.703,1.182,9.787,2.365c3.08,1.183,5.683,2.852,7.796,5.003c2.115,2.151,3.173,4.984,3.173,8.497
					c0,1.65-0.357,3.047-1.074,4.194c-0.719,1.144-1.652,2.097-2.797,2.851c-1.148,0.749-2.439,1.307-3.871,1.666
					c-1.437,0.361-2.905,0.538-4.411,0.538c-1.434,0-2.903-0.106-4.409-0.323v-3.013c0-4.304-1.236-7.653-3.71-10.055
					c-2.472-2.404-5.647-3.93-9.52-4.571l-0.107,37.967c4.374,1.579,8.568,3.283,12.584,5.109c4.015,1.826,7.564,3.979,10.647,6.449
					c3.083,2.477,5.539,5.399,7.368,8.771c1.829,3.369,2.741,7.383,2.741,12.042c0,5.093-0.897,9.505-2.688,13.228
					c-1.794,3.733-4.213,6.888-7.259,9.471c-3.048,2.581-6.615,4.623-10.703,6.126c-4.088,1.51-8.389,2.548-12.907,3.12v12.372
					l-7.742,1.609l-0.109-13.442h-0.859c-2.654,0-5.826-0.217-9.517-0.645c-3.695-0.433-7.227-1.293-10.597-2.578
					c-3.371-1.296-6.238-3.141-8.604-5.545c-2.366-2.397-3.549-5.575-3.549-9.517c0-1.65,0.34-3.081,1.02-4.303
					c0.682-1.215,1.596-2.222,2.743-3.011c1.148-0.786,2.455-1.376,3.929-1.773c1.467-0.393,2.992-0.594,4.57-0.594
					c1.504,0,3.011,0.106,4.518,0.322v3.122c0,5.375,1.379,9.41,4.141,12.098c2.759,2.689,6.828,4.213,12.205,4.571v-40.009
					c-4.158-1.576-8.172-3.299-12.047-5.165c-3.869-1.864-7.294-4.085-10.27-6.668c-2.977-2.58-5.359-5.593-7.152-9.032
					c-1.794-3.443-2.688-7.529-2.688-12.266c0-4.73,0.859-8.851,2.582-12.362c1.72-3.518,4.032-6.458,6.937-8.826
					c2.904-2.364,6.294-4.208,10.165-5.536c3.871-1.326,7.96-2.206,12.261-2.638v-13.12L267.959,179.486 M259.571,236.493
					l-0.107-35.386c-2.294,0.286-4.427,0.843-6.399,1.665c-1.972,0.827-3.676,1.92-5.11,3.283c-1.435,1.36-2.58,2.955-3.441,4.784
					c-0.859,1.83-1.29,3.927-1.29,6.293c0,2.725,0.448,5.093,1.346,7.096c0.895,2.011,2.098,3.768,3.603,5.273
					c1.505,1.507,3.244,2.817,5.216,3.923C255.357,234.539,257.42,235.561,259.571,236.493 M267.529,295.754
					c2.439-0.428,4.732-1.164,6.885-2.203c2.151-1.04,4.016-2.349,5.594-3.924c1.574-1.579,2.813-3.407,3.71-5.486
					c0.896-2.079,1.344-4.41,1.344-6.993c0-2.581-0.482-4.839-1.45-6.774c-0.969-1.937-2.26-3.637-3.875-5.109
					c-1.613-1.469-3.478-2.743-5.591-3.815c-2.117-1.079-4.288-2.044-6.506-2.905L267.529,295.754 M272.026,174.964l-4.524,0.516
					l-8.495,0.969l-3.575,0.408v3.599v9.58c-3.298,0.529-6.492,1.32-9.535,2.363c-4.312,1.479-8.148,3.572-11.404,6.224
					c-3.351,2.732-6.047,6.157-8.014,10.183c-1.984,4.045-2.991,8.802-2.991,14.133c0,5.37,1.058,10.123,3.145,14.129
					c2.023,3.881,4.744,7.318,8.087,10.216c3.225,2.798,6.98,5.239,11.162,7.254c3.158,1.521,6.433,2.96,9.765,4.29v32.572
					c-2.263-0.582-4.057-1.512-5.358-2.78c-1.939-1.888-2.923-4.986-2.923-9.21v-3.122v-3.496l-3.46-0.495
					c-1.682-0.241-3.395-0.363-5.09-0.363c-1.917,0-3.807,0.246-5.615,0.731c-1.912,0.516-3.646,1.303-5.163,2.341
					c-1.657,1.141-2.994,2.607-3.98,4.365c-1.021,1.835-1.535,3.942-1.535,6.275c0,5.027,1.585,9.182,4.711,12.35
					c2.751,2.796,6.126,4.977,10.026,6.476c3.679,1.403,7.569,2.351,11.575,2.819c2.494,0.29,4.784,0.487,6.845,0.59l0.077,9.525
					l0.04,4.916l4.812-1l7.742-1.609l3.212-0.668v-3.28v-8.915c3.554-0.648,6.996-1.584,10.273-2.795
					c4.507-1.656,8.517-3.955,11.912-6.831c3.469-2.942,6.256-6.575,8.287-10.802c2.047-4.257,3.085-9.295,3.085-14.974
					c0-5.319-1.087-10.018-3.229-13.966c-2.074-3.826-4.897-7.188-8.387-9.991c-3.34-2.677-7.209-5.023-11.503-6.977
					c-3.28-1.491-6.704-2.914-10.214-4.243l0.084-29.664c0.998,0.533,1.892,1.186,2.691,1.964c1.676,1.627,2.489,3.97,2.489,7.164
					v3.013v3.493l3.458,0.498c1.679,0.242,3.355,0.364,4.983,0.364c1.839,0,3.654-0.222,5.395-0.66
					c1.853-0.464,3.565-1.204,5.091-2.198c1.638-1.079,2.982-2.449,4.008-4.083c1.125-1.801,1.692-3.931,1.692-6.34
					c0-4.592-1.456-8.402-4.329-11.324c-2.51-2.555-5.614-4.553-9.227-5.94c-3.378-1.296-7.002-2.173-10.771-2.606
					c-1.932-0.223-3.748-0.396-5.436-0.52l0.077-9.912L272.026,174.964L272.026,174.964z M255.52,229.998
					c-0.05-0.027-0.099-0.056-0.148-0.084c-1.646-0.923-3.105-2.018-4.347-3.262c-1.153-1.154-2.085-2.521-2.771-4.063
					c-0.663-1.48-0.998-3.314-0.998-5.457c0-1.756,0.306-3.297,0.908-4.579c0.651-1.384,1.491-2.553,2.565-3.572
					c1.072-1.019,2.382-1.855,3.896-2.49c0.268-0.112,0.543-0.219,0.822-0.319L255.52,229.998L255.52,229.998z M271.578,290.405
					l0.076-25.696c0.221,0.109,0.441,0.221,0.66,0.332c1.782,0.904,3.363,1.982,4.707,3.204c1.257,1.147,2.233,2.433,2.983,3.933
					c0.68,1.358,1.024,3.031,1.024,4.97c0,2.021-0.342,3.836-1.015,5.397c-0.698,1.618-1.635,3.005-2.862,4.236
					c-1.246,1.243-2.76,2.302-4.493,3.14C272.305,290.092,271.943,290.254,271.578,290.405L271.578,290.405z"/>
			</g>
		</g>
		<path style="fill:#F9B233;" d="M280.575,196.835c0,0,11.388,1.615,13.775,6.219c4.186,8.064-0.379,12.769-0.379,12.769
			s3.038-6.057-2.647-11.936C288.089,200.543,280.575,196.835,280.575,196.835z"/>
		<path style="fill:#F9B233;" d="M241.93,277.543c0,0-11.107-0.645-12.33,4.391c-2.145,8.831,2.706,14.266,2.706,14.266
			s-3.692-7.11,0.432-14.176C235.081,278.004,241.93,277.543,241.93,277.543z"/>
		<path style="fill:#F9B233;" d="M271.228,241.922c0,0,16.764,5.155,24.245,15.796c9.272,13.196,0.645,27.667,0.645,27.667
			s5.258-14.135-3.671-26.838C285.497,248.668,271.228,241.922,271.228,241.922z"/>
		<path style="fill:#F9B233;" d="M254.203,252.475c0,0-15.916-7.362-21.897-18.913c-7.415-14.323,3.08-27.504,3.08-27.504
			s-7.113,13.301,0.029,27.084C240.969,243.866,254.203,252.475,254.203,252.475z"/>
		<g>
			<path style="fill:#F9B233;" d="M265.45,314.281c0,0-0.048-2.072-0.13-5.698c-0.055-3.627-0.186-8.808-0.247-15.024
				c-0.056-6.216-0.18-13.469-0.205-21.239c-0.028-7.771-0.059-16.06-0.089-24.349c0.029-8.289,0.06-16.578,0.088-24.349
				c0.022-7.771,0.149-15.023,0.205-21.239c0.06-6.217,0.193-11.397,0.247-15.024c0.083-3.626,0.131-5.698,0.131-5.698
				s0.048,2.072,0.131,5.698c0.054,3.627,0.188,8.808,0.247,15.024c0.056,6.216,0.183,13.469,0.205,21.239
				c0.028,7.77,0.059,16.06,0.088,24.349c-0.03,8.289-0.061,16.578-0.089,24.349c-0.025,7.771-0.149,15.023-0.205,21.239
				c-0.061,6.217-0.192,11.397-0.247,15.024C265.498,312.209,265.45,314.281,265.45,314.281z"/>
		</g>
	</g>
</g>
<g>
	<path style="fill:#664324;" d="M226.297,385.831c0,4.526-3.669,8.195-8.194,8.195H45.281c-4.524,0-8.192-3.669-8.192-8.195v-80.236
		c0-4.527,3.668-4.434,8.192-4.434h172.821c4.525,0,8.194-0.094,8.194,4.434V385.831z"/>
	<g>
		
			<rect x="51.845" y="284.658" transform="matrix(0.848 -0.53 0.53 0.848 -148.3078 117.1293)" style="fill:#D0CD9C;" width="156.364" height="64.875"/>
		
			<rect x="56.835" y="289.648" transform="matrix(0.848 -0.53 0.53 0.848 -148.3071 117.1286)" style="fill:#828F5D;" width="146.384" height="54.895"/>
		
			<rect x="62.379" y="293.53" transform="matrix(0.848 -0.53 0.53 0.848 -148.3067 117.1286)" style="fill:#D0CD9C;" width="135.296" height="47.131"/>
		<path style="fill:#828F5D;" d="M181.335,262.139c2.354,3.764,2.235,8.083-0.264,9.646c-2.499,1.562-6.433-0.223-8.788-3.991
			c-2.355-3.765-2.235-8.083,0.264-9.645C175.047,256.586,178.981,258.371,181.335,262.139z"/>
		<path style="fill:#828F5D;" d="M66.903,333.667c2.353,3.765,2.235,8.086-0.265,9.648c-2.499,1.561-6.434-0.225-8.789-3.989
			c-2.352-3.765-2.234-8.087,0.266-9.646C60.614,328.115,64.549,329.902,66.903,333.667z"/>
		<path style="fill:#828F5D;" d="M88.627,359.567c3.388,5.422,3.217,11.64-0.381,13.888c-3.599,2.25-9.262-0.323-12.65-5.743
			c-3.39-5.422-3.219-11.639,0.381-13.888C79.574,351.574,85.238,354.147,88.627,359.567z"/>
		<path style="fill:#828F5D;" d="M200.505,291.759c3.388,5.422,3.218,11.64-0.38,13.888c-3.598,2.25-9.263-0.323-12.651-5.742
			c-3.388-5.422-3.218-11.64,0.382-13.888C191.452,283.766,197.115,286.337,200.505,291.759z"/>
		<path style="fill:#828F5D;" d="M146.064,303.002c6.376,10.202,4.841,22.662-3.432,27.835c-8.273,5.169-20.148,1.092-26.523-9.11
			c-6.376-10.198-4.84-22.66,3.435-27.831C127.815,288.725,139.689,292.802,146.064,303.002z"/>
		<g>
			<path style="fill:none;stroke:#828F5D;stroke-width:0.8317;stroke-miterlimit:10;" d="M173.999,286.178
				c1.703,2.727,0.875,6.317-1.852,8.023c-2.728,1.705-6.317,0.874-8.021-1.852c-1.706-2.727-0.877-6.318,1.85-8.024
				C168.701,282.621,172.294,283.451,173.999,286.178z"/>
			<g>
				<path style="fill:#828F5D;" d="M168.918,288.613c0.426,0.068,0.811,0.143,1.151,0.224c0.343,0.08,0.653,0.177,0.935,0.286
					c0.279,0.108,0.521,0.255,0.727,0.434c0.205,0.181,0.367,0.409,0.488,0.685c0.078,0.169,0.133,0.347,0.163,0.531
					c0.029,0.185,0.018,0.382-0.036,0.593c-0.055,0.211-0.155,0.425-0.303,0.643c-0.148,0.218-0.358,0.429-0.632,0.627l0.335,0.535
					l-0.327,0.206l-0.336-0.539c-0.048,0.031-0.091,0.058-0.131,0.076c-0.041,0.021-0.078,0.044-0.118,0.066
					c-0.432,0.198-0.813,0.271-1.142,0.219c-0.331-0.051-0.588-0.161-0.774-0.33c-0.186-0.168-0.268-0.374-0.248-0.619
					c0.021-0.245,0.174-0.455,0.458-0.632c0.173-0.107,0.344-0.161,0.515-0.161c0.174,0.002,0.3,0.064,0.377,0.189
					c0.048,0.075,0.053,0.183,0.012,0.316c-0.043,0.137-0.122,0.257-0.24,0.367c-0.027,0.017-0.043,0.032-0.049,0.045
					c-0.112,0.096-0.155,0.193-0.128,0.289c0.028,0.096,0.107,0.166,0.24,0.21c0.147,0.046,0.313,0.053,0.499,0.022
					c0.188-0.031,0.389-0.114,0.607-0.25l-1.823-2.922c-0.51-0.049-0.949-0.127-1.315-0.229c-0.367-0.102-0.685-0.219-0.948-0.356
					c-0.265-0.138-0.48-0.289-0.648-0.45c-0.168-0.161-0.311-0.338-0.429-0.528c-0.081-0.13-0.127-0.291-0.137-0.489
					c-0.013-0.197,0.013-0.4,0.073-0.61c0.062-0.209,0.167-0.428,0.318-0.654c0.15-0.223,0.355-0.434,0.613-0.634l-0.328-0.528
					l0.327-0.203l0.317,0.508l0.257-0.162c0.27-0.141,0.525-0.228,0.769-0.263c0.243-0.034,0.462-0.017,0.654,0.048
					c0.193,0.064,0.351,0.161,0.472,0.293c0.123,0.133,0.203,0.273,0.242,0.42c0.039,0.147,0.024,0.299-0.045,0.449
					c-0.07,0.154-0.197,0.287-0.377,0.397c-0.191,0.12-0.367,0.175-0.529,0.169c-0.163-0.007-0.281-0.07-0.354-0.186
					c-0.054-0.083-0.06-0.19-0.021-0.317c0.038-0.13,0.117-0.247,0.235-0.359c0.018-0.01,0.032-0.025,0.049-0.044
					c0.107-0.104,0.146-0.203,0.117-0.304c-0.029-0.1-0.109-0.17-0.242-0.217c-0.138-0.029-0.307-0.029-0.504,0.006
					c-0.198,0.033-0.401,0.113-0.612,0.244l1.795,2.869C168.89,288.6,168.899,288.607,168.918,288.613z M166.252,287.619
					c0.082,0.13,0.184,0.239,0.304,0.324c0.122,0.09,0.261,0.165,0.419,0.227c0.161,0.066,0.354,0.121,0.581,0.17
					c0.229,0.047,0.496,0.096,0.806,0.146l-1.573-2.519c-0.316,0.234-0.529,0.502-0.642,0.801
					C166.037,287.068,166.07,287.352,166.252,287.619z M171.876,290.647c-0.061-0.116-0.128-0.217-0.202-0.309
					c-0.074-0.089-0.197-0.161-0.366-0.219c-0.168-0.057-0.383-0.116-0.648-0.18c-0.264-0.06-0.605-0.111-1.03-0.156l1.642,2.626
					c0.314-0.26,0.531-0.547,0.65-0.861C172.044,291.232,172.029,290.934,171.876,290.647z"/>
			</g>
		</g>
		<g>
			<path style="fill:none;stroke:#828F5D;stroke-width:0.8317;stroke-miterlimit:10;" d="M98.217,333.548
				c1.704,2.726,0.875,6.315-1.852,8.02c-2.726,1.704-6.319,0.877-8.022-1.85c-1.705-2.727-0.874-6.319,1.851-8.023
				C92.921,329.99,96.512,330.821,98.217,333.548z"/>
			<g>
				<path style="fill:#828F5D;" d="M93.138,335.982c0.426,0.067,0.809,0.143,1.152,0.223c0.341,0.082,0.651,0.179,0.933,0.287
					c0.279,0.109,0.521,0.255,0.727,0.435c0.207,0.18,0.367,0.408,0.49,0.685c0.077,0.169,0.132,0.346,0.16,0.53
					c0.031,0.185,0.019,0.383-0.036,0.594c-0.053,0.208-0.155,0.424-0.302,0.642c-0.148,0.22-0.357,0.43-0.632,0.625l0.335,0.539
					l-0.328,0.205l-0.335-0.538c-0.047,0.03-0.091,0.055-0.13,0.074c-0.042,0.022-0.081,0.045-0.117,0.068
					c-0.433,0.198-0.815,0.271-1.145,0.219c-0.33-0.052-0.587-0.161-0.772-0.331c-0.185-0.169-0.269-0.375-0.247-0.618
					c0.021-0.243,0.171-0.456,0.458-0.632c0.171-0.107,0.343-0.162,0.515-0.162c0.172,0.002,0.298,0.065,0.374,0.188
					c0.051,0.078,0.054,0.184,0.012,0.319c-0.042,0.136-0.12,0.255-0.238,0.367c-0.028,0.015-0.045,0.03-0.052,0.044
					c-0.11,0.097-0.152,0.193-0.126,0.289c0.028,0.097,0.107,0.167,0.24,0.211c0.147,0.044,0.314,0.049,0.5,0.021
					c0.187-0.03,0.388-0.114,0.607-0.253l-1.824-2.916c-0.51-0.055-0.947-0.13-1.313-0.23c-0.368-0.103-0.684-0.223-0.95-0.357
					c-0.264-0.138-0.479-0.289-0.647-0.449c-0.166-0.162-0.31-0.339-0.428-0.529c-0.083-0.13-0.128-0.291-0.138-0.488
					c-0.012-0.198,0.014-0.401,0.074-0.612c0.063-0.208,0.166-0.427,0.317-0.652c0.15-0.224,0.354-0.438,0.613-0.636l-0.329-0.527
					l0.329-0.203l0.318,0.508l0.257-0.162c0.269-0.141,0.524-0.229,0.768-0.262c0.244-0.034,0.461-0.02,0.652,0.046
					c0.195,0.065,0.352,0.161,0.475,0.294c0.122,0.133,0.202,0.273,0.242,0.419c0.038,0.148,0.023,0.3-0.047,0.45
					c-0.07,0.15-0.195,0.286-0.377,0.398c-0.19,0.119-0.367,0.175-0.529,0.169c-0.164-0.008-0.28-0.07-0.354-0.188
					c-0.053-0.082-0.06-0.189-0.021-0.316c0.038-0.13,0.117-0.25,0.232-0.356c0.02-0.014,0.036-0.028,0.052-0.048
					c0.107-0.103,0.146-0.204,0.117-0.303c-0.028-0.099-0.109-0.173-0.243-0.213c-0.139-0.032-0.307-0.032-0.505,0.002
					c-0.198,0.033-0.399,0.114-0.61,0.244l1.795,2.87C93.109,335.97,93.121,335.977,93.138,335.982z M90.471,334.988
					c0.082,0.131,0.184,0.239,0.305,0.325c0.12,0.089,0.26,0.165,0.418,0.227c0.159,0.065,0.353,0.119,0.58,0.167
					c0.23,0.049,0.499,0.099,0.807,0.148l-1.573-2.52c-0.316,0.234-0.53,0.503-0.64,0.802
					C90.256,334.436,90.291,334.72,90.471,334.988z M96.096,338.017c-0.061-0.116-0.128-0.221-0.203-0.31
					c-0.074-0.088-0.196-0.161-0.364-0.218c-0.169-0.058-0.386-0.118-0.648-0.181c-0.264-0.059-0.607-0.111-1.031-0.156l1.642,2.626
					c0.315-0.261,0.533-0.546,0.652-0.86C96.262,338.6,96.246,338.3,96.096,338.017z"/>
			</g>
		</g>
		<g>
			<path style="fill:#828F5D;" d="M156.261,276.045c0.37-0.23,0.738-0.368,1.102-0.413c0.365-0.044,0.721,0.001,1.067,0.135
				c0.347,0.134,0.683,0.354,1.006,0.662c0.324,0.308,0.631,0.694,0.922,1.159c0.314,0.505,0.54,0.984,0.674,1.44
				c0.135,0.456,0.179,0.884,0.132,1.282c-0.046,0.398-0.184,0.766-0.41,1.1c-0.227,0.335-0.544,0.628-0.95,0.882
				c-0.374,0.234-0.744,0.37-1.11,0.406c-0.366,0.036-0.725-0.014-1.075-0.154c-0.351-0.14-0.689-0.364-1.014-0.674
				c-0.324-0.309-0.633-0.696-0.924-1.162C154.393,278.647,154.585,277.093,156.261,276.045z M156.367,276.678
				c-0.248,0.155-0.409,0.346-0.484,0.573c-0.073,0.228-0.09,0.477-0.045,0.749c0.043,0.272,0.137,0.559,0.279,0.861
				c0.142,0.302,0.309,0.605,0.498,0.909c0.212,0.34,0.44,0.659,0.684,0.962c0.244,0.303,0.497,0.552,0.759,0.747
				c0.263,0.195,0.531,0.317,0.809,0.366c0.277,0.049,0.554-0.014,0.83-0.186c0.248-0.155,0.409-0.35,0.482-0.582
				c0.075-0.231,0.087-0.487,0.038-0.763c-0.05-0.276-0.147-0.568-0.293-0.875c-0.145-0.306-0.313-0.611-0.502-0.914
				c-0.209-0.336-0.435-0.653-0.678-0.954c-0.242-0.301-0.493-0.545-0.751-0.735c-0.259-0.189-0.525-0.307-0.8-0.351
				C156.919,276.44,156.643,276.505,156.367,276.678z"/>
			<path style="fill:#828F5D;" d="M161.973,272.476c0.37-0.231,0.737-0.369,1.102-0.414c0.364-0.044,0.721,0.001,1.066,0.135
				c0.348,0.134,0.683,0.355,1.006,0.662c0.324,0.308,0.631,0.694,0.922,1.159c0.316,0.505,0.541,0.984,0.675,1.44
				c0.134,0.456,0.179,0.884,0.132,1.282c-0.047,0.398-0.184,0.766-0.411,1.1c-0.227,0.334-0.543,0.627-0.949,0.881
				c-0.374,0.234-0.745,0.37-1.11,0.407c-0.367,0.036-0.725-0.015-1.076-0.155c-0.35-0.14-0.688-0.364-1.013-0.674
				c-0.325-0.31-0.633-0.696-0.924-1.162C160.104,275.077,160.297,273.522,161.973,272.476z M162.079,273.107
				c-0.248,0.155-0.41,0.346-0.484,0.573c-0.074,0.229-0.09,0.478-0.046,0.749c0.044,0.272,0.137,0.559,0.279,0.861
				c0.143,0.302,0.31,0.606,0.499,0.909c0.212,0.34,0.439,0.659,0.684,0.962c0.243,0.303,0.496,0.552,0.759,0.747
				c0.262,0.196,0.531,0.317,0.809,0.366c0.277,0.049,0.554-0.014,0.83-0.185c0.248-0.155,0.408-0.35,0.482-0.582
				c0.074-0.231,0.086-0.487,0.037-0.762c-0.049-0.277-0.146-0.568-0.292-0.876c-0.145-0.306-0.313-0.611-0.502-0.914
				c-0.21-0.336-0.436-0.652-0.679-0.954c-0.242-0.301-0.492-0.545-0.75-0.735c-0.26-0.188-0.525-0.306-0.801-0.351
				C162.631,272.871,162.355,272.936,162.079,273.107z"/>
			<path style="fill:#828F5D;" d="M167.684,268.905c0.37-0.231,0.738-0.369,1.102-0.413c0.365-0.045,0.721,0,1.067,0.134
				c0.347,0.134,0.683,0.354,1.005,0.662c0.324,0.308,0.632,0.694,0.923,1.159c0.315,0.505,0.54,0.985,0.675,1.44
				c0.134,0.456,0.178,0.884,0.131,1.283c-0.046,0.398-0.184,0.765-0.41,1.1c-0.228,0.335-0.544,0.628-0.949,0.882
				c-0.375,0.233-0.745,0.37-1.111,0.406c-0.366,0.036-0.725-0.015-1.075-0.155c-0.351-0.14-0.688-0.364-1.013-0.673
				c-0.326-0.311-0.633-0.697-0.924-1.163C165.815,271.507,166.008,269.952,167.684,268.905z M167.79,269.537
				c-0.248,0.155-0.409,0.347-0.484,0.573c-0.073,0.228-0.089,0.477-0.046,0.749c0.045,0.271,0.138,0.56,0.28,0.861
				c0.142,0.303,0.309,0.605,0.498,0.909c0.212,0.34,0.44,0.66,0.684,0.962c0.244,0.303,0.497,0.553,0.759,0.747
				c0.262,0.196,0.531,0.317,0.809,0.366c0.277,0.05,0.554-0.013,0.83-0.186c0.248-0.155,0.409-0.35,0.482-0.582
				c0.075-0.231,0.087-0.486,0.038-0.762c-0.05-0.277-0.147-0.568-0.292-0.876c-0.145-0.306-0.313-0.611-0.503-0.914
				c-0.209-0.336-0.435-0.652-0.678-0.954c-0.243-0.301-0.493-0.545-0.751-0.735c-0.259-0.188-0.525-0.306-0.8-0.351
				C168.342,269.301,168.066,269.365,167.79,269.537z"/>
		</g>
		<g>
			<path style="fill:#828F5D;" d="M73.076,328.039c0.37-0.232,0.737-0.369,1.101-0.414c0.365-0.043,0.721,0.001,1.066,0.135
				c0.348,0.135,0.684,0.355,1.006,0.663c0.324,0.307,0.632,0.693,0.923,1.159c0.314,0.504,0.54,0.984,0.674,1.44
				c0.135,0.455,0.179,0.883,0.132,1.282c-0.047,0.399-0.184,0.766-0.41,1.1c-0.228,0.334-0.544,0.627-0.95,0.881
				c-0.374,0.234-0.744,0.37-1.11,0.406c-0.367,0.038-0.725-0.014-1.075-0.153c-0.351-0.14-0.688-0.365-1.014-0.675
				c-0.325-0.309-0.632-0.696-0.923-1.161C71.207,330.641,71.4,329.086,73.076,328.039z M73.183,328.671
				c-0.248,0.155-0.409,0.347-0.484,0.573c-0.073,0.228-0.089,0.478-0.046,0.749c0.044,0.272,0.137,0.559,0.279,0.861
				c0.143,0.303,0.31,0.607,0.499,0.909c0.212,0.34,0.439,0.66,0.684,0.963c0.244,0.303,0.497,0.551,0.759,0.747
				c0.262,0.194,0.531,0.317,0.809,0.366c0.277,0.049,0.554-0.014,0.83-0.186c0.248-0.155,0.409-0.35,0.482-0.582
				c0.074-0.232,0.086-0.487,0.037-0.764c-0.049-0.275-0.146-0.567-0.291-0.874c-0.145-0.307-0.313-0.612-0.503-0.915
				c-0.209-0.335-0.435-0.652-0.678-0.953c-0.243-0.301-0.493-0.546-0.752-0.735c-0.258-0.189-0.524-0.306-0.799-0.352
				C73.734,328.436,73.459,328.499,73.183,328.671z"/>
			<path style="fill:#828F5D;" d="M78.787,324.469c0.371-0.232,0.738-0.369,1.103-0.413c0.364-0.044,0.72,0.001,1.066,0.134
				c0.347,0.135,0.683,0.355,1.006,0.663c0.324,0.307,0.632,0.693,0.923,1.159c0.315,0.504,0.539,0.984,0.674,1.441
				c0.135,0.455,0.178,0.883,0.131,1.282c-0.046,0.399-0.183,0.766-0.41,1.1c-0.227,0.334-0.543,0.627-0.949,0.881
				c-0.375,0.234-0.744,0.371-1.111,0.407c-0.366,0.037-0.725-0.015-1.074-0.154c-0.351-0.14-0.689-0.365-1.014-0.675
				c-0.325-0.309-0.633-0.696-0.924-1.161C76.919,327.07,77.112,325.516,78.787,324.469z M78.895,325.101
				c-0.248,0.155-0.41,0.347-0.484,0.573c-0.074,0.229-0.09,0.479-0.046,0.749c0.043,0.272,0.137,0.559,0.279,0.861
				c0.143,0.304,0.31,0.606,0.499,0.909c0.211,0.34,0.439,0.661,0.684,0.963c0.244,0.303,0.496,0.551,0.759,0.747
				c0.262,0.195,0.531,0.317,0.808,0.366c0.278,0.049,0.555-0.014,0.83-0.186c0.248-0.155,0.41-0.35,0.483-0.582
				c0.074-0.232,0.086-0.487,0.037-0.763c-0.05-0.276-0.146-0.568-0.292-0.875c-0.145-0.307-0.313-0.612-0.502-0.915
				c-0.21-0.335-0.436-0.652-0.678-0.953c-0.243-0.301-0.493-0.546-0.752-0.735c-0.258-0.19-0.524-0.306-0.799-0.352
				C79.445,324.865,79.17,324.929,78.895,325.101z"/>
			<path style="fill:#828F5D;" d="M84.499,320.898c0.37-0.232,0.737-0.369,1.102-0.413c0.365-0.044,0.721,0.001,1.067,0.135
				c0.347,0.134,0.683,0.355,1.006,0.662c0.324,0.308,0.631,0.693,0.922,1.159c0.314,0.504,0.54,0.984,0.674,1.44
				c0.135,0.456,0.179,0.884,0.132,1.283c-0.047,0.398-0.184,0.765-0.41,1.099c-0.228,0.335-0.544,0.628-0.95,0.882
				c-0.374,0.233-0.744,0.37-1.11,0.406c-0.366,0.037-0.725-0.015-1.075-0.154c-0.351-0.14-0.688-0.365-1.014-0.674
				c-0.324-0.31-0.633-0.696-0.924-1.161C82.63,323.5,82.823,321.945,84.499,320.898z M84.605,321.531
				c-0.248,0.154-0.409,0.346-0.484,0.572c-0.073,0.229-0.09,0.479-0.046,0.749c0.044,0.272,0.138,0.56,0.28,0.861
				c0.142,0.304,0.309,0.606,0.498,0.909c0.212,0.34,0.439,0.661,0.684,0.964c0.244,0.302,0.496,0.551,0.759,0.746
				c0.263,0.195,0.531,0.317,0.809,0.366c0.277,0.049,0.554-0.013,0.83-0.185c0.248-0.155,0.409-0.35,0.482-0.582
				c0.074-0.233,0.087-0.486,0.037-0.763c-0.05-0.276-0.146-0.568-0.292-0.874c-0.145-0.308-0.313-0.613-0.502-0.916
				c-0.209-0.335-0.435-0.652-0.678-0.953c-0.243-0.301-0.493-0.546-0.752-0.734c-0.258-0.19-0.524-0.307-0.799-0.352
				C85.157,321.295,84.882,321.358,84.605,321.531z"/>
		</g>
		<path style="fill:#D0CD9C;" d="M149.831,314.853c-1.888-0.26-9.058,2.783-10.026,2.381c-0.971-0.4-3.312-2.533-3.117-3.374
			c0.192-0.843,0.999-3.203,0.674-4.944c-0.08-0.428-0.313-1.102-0.643-1.904c0.189,0.048,0.422,0.035,0.695-0.137
			c0.839-0.523-0.729-5.928-2.077-5.775c-0.664,0.074-0.944,0.506-1.048,1.003c-0.638-1.11-1.283-2.104-1.832-2.761
			c-1.746-2.086-6.167-4.105-10.419-1.445c-4.25,2.655-4.368,7.51-3.259,9.995c0.35,0.781,0.961,1.795,1.682,2.857
			c-0.492-0.125-1.006-0.063-1.364,0.502c-0.724,1.146,3.445,4.924,4.286,4.397c0.273-0.171,0.384-0.371,0.424-0.564
			c0.576,0.647,1.082,1.149,1.433,1.412c1.422,1.054,3.896,1.364,4.737,1.556c0.842,0.195,1.734,3.236,1.67,4.283
			c-0.064,1.048-5.938,6.161-6.535,7.971c-0.51,1.557,3.171,7.377,3.171,7.377l13.127-8.207l0,0l13.663-8.541
			C155.072,320.934,151.455,315.074,149.831,314.853z"/>
		
			<rect x="94.514" y="329.078" transform="matrix(0.848 -0.53 0.53 0.848 -154.2182 125.4105)" style="fill:#828F5D;" width="93.987" height="4.921"/>
	</g>
	<g>
		
			<rect x="48.419" y="281.938" transform="matrix(0.7473 -0.6645 0.6645 0.7473 -176.9029 163.5609)" style="fill:#D9DED5;" width="156.365" height="64.875"/>
		
			<rect x="44.667" y="281.444" transform="matrix(0.7473 -0.6645 0.6645 0.7473 -177.5234 160.9464)" style="fill:#D0CD9C;" width="156.366" height="64.874"/>
		
			<rect x="49.658" y="286.435" transform="matrix(0.7473 -0.6645 0.6645 0.7473 -177.5228 160.9453)" style="fill:#828F5D;" width="146.385" height="54.893"/>
		
			<rect x="55.203" y="290.316" transform="matrix(0.7473 -0.6645 0.6645 0.7473 -177.5252 160.9494)" style="fill:#D0CD9C;" width="135.297" height="47.131"/>
		<path style="fill:#828F5D;" d="M164.238,251.112c2.95,3.319,3.558,7.597,1.355,9.554c-2.204,1.959-6.381,0.858-9.331-2.462
			c-2.951-3.317-3.557-7.598-1.355-9.554C157.11,246.691,161.287,247.793,164.238,251.112z"/>
		<path style="fill:#828F5D;" d="M63.389,340.782c2.951,3.319,3.558,7.598,1.356,9.554c-2.203,1.959-6.382,0.858-9.333-2.461
			c-2.95-3.318-3.556-7.597-1.353-9.554C56.261,336.361,60.438,337.463,63.389,340.782z"/>
		<path style="fill:#828F5D;" d="M89.141,362.682c4.25,4.775,5.121,10.936,1.951,13.754c-3.172,2.821-9.186,1.234-13.434-3.543
			c-4.249-4.776-5.121-10.934-1.95-13.755C78.879,356.316,84.894,357.904,89.141,362.682z"/>
		<path style="fill:#828F5D;" d="M188.093,277.105c4.251,4.779,5.122,10.938,1.952,13.758c-3.172,2.82-9.186,1.233-13.436-3.546
			c-4.248-4.776-5.119-10.935-1.947-13.755C177.832,270.742,183.846,272.329,188.093,277.105z"/>
		<path style="fill:#828F5D;" d="M136.305,297.303c7.992,8.988,8.564,21.534,1.273,28.016c-7.292,6.483-19.68,4.448-27.674-4.541
			c-7.992-8.988-8.563-21.531-1.271-28.014C115.924,286.282,128.313,288.315,136.305,297.303z"/>
		<g>
			<path style="fill:none;stroke:#828F5D;stroke-width:0.8317;stroke-miterlimit:10;" d="M161.025,276.039
				c2.139,2.404,1.924,6.083-0.48,8.222c-2.402,2.136-6.082,1.919-8.219-0.483c-2.137-2.402-1.922-6.084,0.481-8.22
				C155.212,273.421,158.89,273.638,161.025,276.039z"/>
			<g>
				<path style="fill:#828F5D;" d="M156.426,279.293c0.432-0.004,0.824,0.003,1.174,0.027c0.352,0.022,0.674,0.064,0.969,0.125
					c0.293,0.062,0.558,0.164,0.791,0.307c0.231,0.143,0.428,0.341,0.596,0.594c0.105,0.152,0.188,0.319,0.248,0.496
					c0.061,0.177,0.082,0.375,0.064,0.59c-0.019,0.217-0.083,0.445-0.19,0.685c-0.108,0.242-0.282,0.481-0.521,0.724l0.423,0.474
					l-0.29,0.255l-0.42-0.474c-0.042,0.039-0.082,0.07-0.117,0.099c-0.035,0.026-0.071,0.055-0.105,0.084
					c-0.393,0.267-0.754,0.402-1.09,0.408c-0.332,0.002-0.605-0.063-0.817-0.197c-0.211-0.136-0.327-0.326-0.347-0.567
					c-0.021-0.245,0.094-0.479,0.347-0.702c0.148-0.133,0.311-0.217,0.479-0.243c0.171-0.028,0.305,0.011,0.401,0.12
					c0.061,0.07,0.082,0.175,0.063,0.314c-0.018,0.139-0.074,0.273-0.173,0.4c-0.024,0.021-0.04,0.04-0.042,0.052
					c-0.094,0.116-0.12,0.217-0.077,0.308c0.043,0.088,0.134,0.146,0.273,0.168c0.151,0.018,0.316-0.004,0.497-0.063
					c0.177-0.063,0.362-0.18,0.556-0.352l-2.288-2.57c-0.511,0.033-0.956,0.031-1.333-0.007c-0.38-0.037-0.712-0.103-0.995-0.193
					c-0.285-0.091-0.523-0.203-0.716-0.336c-0.19-0.133-0.361-0.281-0.51-0.447c-0.102-0.114-0.176-0.268-0.218-0.46
					c-0.044-0.193-0.055-0.398-0.028-0.614c0.024-0.219,0.091-0.449,0.203-0.698c0.111-0.246,0.277-0.489,0.5-0.728l-0.414-0.466
					l0.289-0.258l0.398,0.447l0.227-0.2c0.243-0.185,0.48-0.314,0.714-0.387c0.233-0.076,0.451-0.097,0.652-0.066
					c0.202,0.032,0.372,0.101,0.514,0.214c0.144,0.109,0.248,0.235,0.311,0.372c0.061,0.138,0.072,0.289,0.029,0.449
					c-0.045,0.163-0.144,0.315-0.305,0.456c-0.168,0.151-0.332,0.234-0.494,0.255c-0.162,0.021-0.289-0.021-0.381-0.121
					c-0.066-0.076-0.092-0.181-0.072-0.313c0.015-0.133,0.072-0.264,0.17-0.392c0.017-0.015,0.029-0.032,0.043-0.054
					c0.089-0.119,0.108-0.227,0.064-0.317c-0.046-0.097-0.137-0.151-0.275-0.171c-0.143-0.01-0.309,0.02-0.497,0.085
					c-0.19,0.067-0.377,0.183-0.562,0.345l2.248,2.53C156.396,279.283,156.408,279.289,156.426,279.293z M153.633,278.758
					c0.102,0.113,0.22,0.206,0.354,0.271c0.135,0.066,0.284,0.116,0.451,0.152c0.168,0.037,0.367,0.06,0.6,0.068
					c0.234,0.008,0.508,0.013,0.82,0.011l-1.973-2.22c-0.273,0.283-0.439,0.582-0.498,0.898
					C153.327,278.251,153.408,278.523,153.633,278.758z M159.685,280.804c-0.078-0.105-0.162-0.196-0.252-0.271
					c-0.088-0.073-0.221-0.124-0.396-0.156c-0.177-0.025-0.399-0.05-0.669-0.067c-0.271-0.016-0.618-0.011-1.043,0.018l2.058,2.315
					c0.268-0.309,0.433-0.63,0.499-0.959C159.947,281.352,159.881,281.059,159.685,280.804z"/>
			</g>
		</g>
		<g>
			<path style="fill:none;stroke:#828F5D;stroke-width:0.8317;stroke-miterlimit:10;" d="M94.242,335.424
				c2.137,2.404,1.92,6.082-0.483,8.218c-2.401,2.139-6.084,1.923-8.219-0.481c-2.137-2.403-1.921-6.082,0.482-8.219
				C88.426,332.804,92.104,333.022,94.242,335.424z"/>
			<g>
				<path style="fill:#828F5D;" d="M89.642,338.675c0.431-0.002,0.824,0.005,1.174,0.028c0.35,0.021,0.673,0.063,0.967,0.125
					c0.295,0.061,0.559,0.164,0.79,0.307c0.233,0.141,0.431,0.341,0.597,0.594c0.105,0.154,0.189,0.317,0.25,0.494
					c0.06,0.181,0.08,0.375,0.063,0.592c-0.019,0.215-0.081,0.443-0.19,0.685c-0.109,0.239-0.281,0.482-0.518,0.721l0.421,0.474
					l-0.29,0.259l-0.42-0.475c-0.041,0.037-0.081,0.07-0.117,0.096c-0.036,0.027-0.071,0.056-0.104,0.086
					c-0.394,0.269-0.758,0.404-1.092,0.409c-0.334,0.003-0.607-0.062-0.818-0.198c-0.211-0.137-0.325-0.325-0.346-0.569
					c-0.023-0.241,0.094-0.477,0.346-0.7c0.15-0.135,0.309-0.216,0.479-0.244c0.171-0.025,0.306,0.013,0.402,0.123
					c0.061,0.066,0.083,0.174,0.063,0.311c-0.019,0.141-0.076,0.273-0.171,0.4c-0.027,0.024-0.04,0.039-0.043,0.055
					c-0.096,0.114-0.12,0.216-0.077,0.305c0.043,0.091,0.133,0.148,0.271,0.167c0.153,0.02,0.319,0,0.496-0.063
					c0.178-0.061,0.365-0.178,0.558-0.35l-2.287-2.572c-0.512,0.033-0.956,0.03-1.335-0.006c-0.379-0.038-0.71-0.103-0.994-0.194
					c-0.284-0.091-0.522-0.203-0.715-0.337c-0.193-0.129-0.362-0.277-0.51-0.447c-0.101-0.113-0.175-0.268-0.219-0.46
					c-0.045-0.192-0.054-0.396-0.028-0.612c0.025-0.217,0.093-0.449,0.203-0.696c0.11-0.247,0.278-0.492,0.499-0.73l-0.412-0.464
					l0.29-0.258l0.398,0.447l0.226-0.201c0.242-0.183,0.479-0.313,0.713-0.39c0.234-0.072,0.451-0.092,0.653-0.062
					c0.2,0.031,0.371,0.102,0.515,0.211c0.143,0.109,0.244,0.234,0.309,0.371c0.063,0.141,0.073,0.292,0.029,0.453
					c-0.044,0.162-0.145,0.313-0.303,0.455c-0.17,0.149-0.334,0.235-0.495,0.255c-0.163,0.022-0.289-0.02-0.381-0.124
					c-0.067-0.076-0.091-0.177-0.075-0.311c0.018-0.135,0.074-0.265,0.17-0.392c0.018-0.014,0.032-0.032,0.045-0.053
					c0.088-0.12,0.109-0.227,0.064-0.32c-0.046-0.093-0.139-0.15-0.275-0.171c-0.143-0.006-0.309,0.023-0.497,0.088
					c-0.19,0.064-0.377,0.179-0.562,0.344l2.249,2.528C89.612,338.667,89.624,338.673,89.642,338.675z M86.847,338.142
					c0.104,0.114,0.221,0.206,0.354,0.271c0.136,0.066,0.284,0.117,0.452,0.154c0.168,0.036,0.367,0.057,0.599,0.067
					c0.235,0.007,0.507,0.011,0.823,0.011l-1.975-2.223c-0.274,0.287-0.439,0.582-0.497,0.898
					C86.542,337.634,86.625,337.908,86.847,338.142z M92.897,340.184c-0.077-0.103-0.161-0.194-0.249-0.271
					c-0.089-0.072-0.223-0.124-0.398-0.152c-0.176-0.03-0.398-0.053-0.669-0.068c-0.271-0.019-0.616-0.01-1.042,0.019l2.057,2.313
					c0.268-0.31,0.434-0.627,0.5-0.96C93.16,340.732,93.096,340.441,92.897,340.184z"/>
			</g>
		</g>
		<g>
			<path style="fill:#828F5D;" d="M141.836,269.024c0.326-0.29,0.666-0.487,1.018-0.592c0.352-0.104,0.711-0.119,1.074-0.046
				c0.365,0.074,0.732,0.235,1.103,0.484c0.371,0.249,0.739,0.578,1.104,0.988c0.395,0.444,0.697,0.881,0.905,1.308
				c0.209,0.428,0.324,0.842,0.345,1.242c0.02,0.401-0.053,0.785-0.221,1.153c-0.168,0.367-0.431,0.71-0.789,1.028
				c-0.33,0.293-0.672,0.489-1.026,0.586c-0.355,0.098-0.718,0.106-1.086,0.027c-0.369-0.078-0.74-0.244-1.112-0.495
				c-0.372-0.251-0.74-0.58-1.104-0.99C140.43,271.902,140.359,270.337,141.836,269.024z M142.048,269.63
				c-0.219,0.194-0.347,0.409-0.382,0.645c-0.035,0.237-0.008,0.486,0.08,0.746c0.089,0.262,0.229,0.528,0.42,0.803
				c0.191,0.275,0.406,0.547,0.644,0.814c0.267,0.3,0.544,0.577,0.835,0.834c0.291,0.258,0.582,0.46,0.873,0.609
				c0.291,0.148,0.577,0.225,0.859,0.226c0.281,0.002,0.543-0.105,0.786-0.321c0.219-0.195,0.345-0.413,0.379-0.655
				c0.034-0.24,0.004-0.494-0.091-0.758c-0.095-0.265-0.24-0.536-0.435-0.814c-0.194-0.278-0.41-0.551-0.648-0.818
				c-0.263-0.295-0.538-0.57-0.827-0.827c-0.29-0.255-0.578-0.454-0.864-0.598c-0.286-0.144-0.568-0.215-0.847-0.213
				C142.552,269.305,142.291,269.414,142.048,269.63z"/>
			<path style="fill:#828F5D;" d="M146.869,264.549c0.327-0.29,0.667-0.487,1.018-0.592c0.352-0.104,0.711-0.119,1.075-0.046
				c0.364,0.074,0.731,0.235,1.103,0.484c0.37,0.249,0.738,0.578,1.103,0.988c0.395,0.444,0.697,0.881,0.906,1.308
				c0.209,0.428,0.323,0.842,0.344,1.242c0.021,0.401-0.053,0.785-0.221,1.153c-0.167,0.367-0.431,0.71-0.788,1.028
				c-0.33,0.293-0.673,0.489-1.027,0.586c-0.355,0.098-0.717,0.106-1.086,0.027c-0.368-0.078-0.739-0.244-1.112-0.495
				c-0.372-0.251-0.739-0.58-1.105-0.99C145.463,267.427,145.393,265.861,146.869,264.549z M147.081,265.154
				c-0.219,0.194-0.346,0.409-0.382,0.646c-0.034,0.237-0.008,0.486,0.08,0.746c0.089,0.262,0.229,0.528,0.42,0.803
				c0.191,0.274,0.406,0.547,0.644,0.813c0.267,0.3,0.545,0.577,0.836,0.834c0.291,0.258,0.581,0.46,0.873,0.609
				c0.29,0.148,0.576,0.225,0.858,0.226c0.281,0.002,0.543-0.105,0.786-0.321c0.219-0.195,0.346-0.414,0.379-0.655
				c0.035-0.241,0.004-0.494-0.091-0.758c-0.095-0.265-0.239-0.536-0.435-0.814c-0.193-0.277-0.41-0.551-0.648-0.818
				c-0.263-0.295-0.539-0.57-0.828-0.826c-0.29-0.256-0.577-0.455-0.864-0.599c-0.286-0.144-0.568-0.215-0.847-0.213
				C147.585,264.829,147.324,264.939,147.081,265.154z"/>
			<path style="fill:#828F5D;" d="M151.903,260.073c0.326-0.29,0.666-0.487,1.018-0.592c0.353-0.104,0.71-0.119,1.074-0.046
				c0.364,0.074,0.732,0.235,1.102,0.484c0.37,0.249,0.738,0.578,1.104,0.988c0.395,0.444,0.696,0.881,0.905,1.308
				c0.209,0.428,0.324,0.842,0.345,1.242c0.02,0.401-0.053,0.785-0.221,1.153c-0.168,0.367-0.432,0.71-0.789,1.028
				c-0.33,0.293-0.672,0.489-1.027,0.586c-0.354,0.098-0.717,0.107-1.086,0.027c-0.368-0.078-0.739-0.244-1.111-0.495
				c-0.372-0.251-0.74-0.58-1.104-0.99C150.497,262.951,150.427,261.386,151.903,260.073z M152.114,260.679
				c-0.219,0.194-0.346,0.409-0.381,0.645c-0.035,0.237-0.009,0.486,0.08,0.746c0.089,0.262,0.229,0.528,0.419,0.803
				c0.191,0.274,0.406,0.547,0.645,0.813c0.266,0.3,0.544,0.577,0.835,0.834c0.291,0.258,0.582,0.46,0.873,0.609
				c0.291,0.148,0.577,0.225,0.858,0.226c0.281,0.002,0.544-0.105,0.787-0.321c0.219-0.195,0.345-0.414,0.379-0.655
				c0.034-0.241,0.003-0.494-0.092-0.758c-0.095-0.265-0.239-0.536-0.434-0.814c-0.194-0.278-0.41-0.551-0.648-0.818
				c-0.263-0.295-0.538-0.57-0.828-0.827c-0.289-0.255-0.577-0.454-0.863-0.598c-0.287-0.144-0.568-0.215-0.847-0.213
				C152.619,260.353,152.357,260.463,152.114,260.679z"/>
		</g>
		<g>
			<path style="fill:#828F5D;" d="M68.527,334.208c0.326-0.291,0.666-0.487,1.018-0.593c0.353-0.104,0.71-0.119,1.074-0.045
				c0.364,0.074,0.732,0.235,1.103,0.484c0.371,0.249,0.738,0.578,1.104,0.988c0.395,0.444,0.696,0.881,0.905,1.308
				c0.209,0.428,0.324,0.841,0.345,1.242s-0.053,0.785-0.221,1.153c-0.168,0.367-0.431,0.71-0.789,1.027
				c-0.33,0.294-0.672,0.489-1.026,0.587c-0.355,0.098-0.718,0.106-1.086,0.027c-0.369-0.079-0.74-0.244-1.112-0.495
				c-0.372-0.251-0.74-0.58-1.104-0.99C67.121,337.086,67.051,335.521,68.527,334.208z M68.739,334.814
				c-0.219,0.194-0.347,0.409-0.382,0.646c-0.035,0.237-0.008,0.486,0.08,0.746c0.089,0.261,0.229,0.528,0.42,0.803
				c0.191,0.274,0.405,0.546,0.644,0.813c0.266,0.3,0.544,0.578,0.835,0.835s0.582,0.46,0.873,0.608
				c0.291,0.149,0.577,0.225,0.858,0.227c0.281,0.002,0.544-0.105,0.787-0.322c0.219-0.194,0.345-0.413,0.379-0.654
				c0.034-0.241,0.003-0.495-0.091-0.758c-0.095-0.265-0.24-0.536-0.435-0.813c-0.194-0.278-0.41-0.551-0.648-0.818
				c-0.263-0.295-0.538-0.57-0.828-0.827c-0.289-0.255-0.577-0.454-0.863-0.598c-0.286-0.145-0.568-0.215-0.847-0.213
				C69.243,334.487,68.982,334.597,68.739,334.814z"/>
			<path style="fill:#828F5D;" d="M73.561,329.732c0.327-0.291,0.666-0.487,1.018-0.592c0.353-0.105,0.711-0.12,1.074-0.046
				c0.365,0.074,0.732,0.235,1.104,0.484c0.37,0.249,0.738,0.578,1.103,0.988c0.396,0.444,0.697,0.881,0.905,1.308
				c0.21,0.428,0.324,0.841,0.345,1.242c0.021,0.401-0.053,0.785-0.221,1.153c-0.167,0.367-0.431,0.71-0.788,1.027
				c-0.33,0.294-0.673,0.489-1.027,0.587c-0.355,0.098-0.717,0.106-1.086,0.027c-0.368-0.079-0.739-0.244-1.112-0.495
				c-0.372-0.251-0.739-0.58-1.104-0.99C72.154,332.61,72.084,331.045,73.561,329.732z M73.772,330.338
				c-0.219,0.194-0.346,0.409-0.382,0.646c-0.034,0.237-0.008,0.486,0.08,0.746c0.089,0.261,0.229,0.528,0.42,0.803
				c0.191,0.274,0.406,0.546,0.644,0.813c0.267,0.3,0.544,0.578,0.836,0.835c0.291,0.257,0.581,0.46,0.872,0.608
				c0.291,0.149,0.577,0.225,0.859,0.227c0.281,0.002,0.543-0.105,0.786-0.322c0.219-0.194,0.346-0.413,0.379-0.654
				c0.035-0.241,0.004-0.495-0.091-0.758c-0.095-0.265-0.24-0.536-0.435-0.814c-0.194-0.278-0.41-0.551-0.648-0.818
				c-0.263-0.295-0.539-0.57-0.828-0.827c-0.29-0.255-0.577-0.454-0.864-0.598c-0.286-0.145-0.568-0.215-0.847-0.213
				C74.276,330.012,74.016,330.121,73.772,330.338z"/>
			<path style="fill:#828F5D;" d="M78.595,325.257c0.326-0.291,0.666-0.487,1.018-0.593c0.352-0.104,0.71-0.119,1.074-0.045
				c0.364,0.074,0.732,0.235,1.103,0.484c0.37,0.249,0.738,0.578,1.104,0.988c0.395,0.444,0.696,0.881,0.905,1.308
				c0.209,0.428,0.324,0.841,0.344,1.242c0.021,0.401-0.053,0.785-0.22,1.153c-0.168,0.367-0.432,0.71-0.789,1.027
				c-0.33,0.294-0.672,0.489-1.027,0.587c-0.355,0.098-0.717,0.106-1.086,0.027c-0.368-0.079-0.739-0.244-1.111-0.495
				c-0.372-0.251-0.74-0.58-1.106-0.99C77.188,328.135,77.118,326.569,78.595,325.257z M78.806,325.862
				c-0.219,0.194-0.346,0.409-0.382,0.646c-0.034,0.237-0.008,0.486,0.08,0.746c0.09,0.261,0.229,0.528,0.42,0.803
				c0.191,0.274,0.406,0.546,0.645,0.813c0.266,0.3,0.544,0.578,0.835,0.835c0.291,0.257,0.582,0.46,0.873,0.608
				c0.291,0.149,0.576,0.225,0.858,0.227c0.281,0.002,0.544-0.105,0.787-0.322c0.219-0.194,0.345-0.413,0.379-0.654
				c0.034-0.241,0.003-0.495-0.092-0.758c-0.095-0.265-0.239-0.536-0.434-0.813c-0.194-0.278-0.411-0.551-0.648-0.818
				c-0.263-0.295-0.538-0.57-0.828-0.827c-0.29-0.255-0.577-0.454-0.863-0.598c-0.287-0.145-0.568-0.215-0.848-0.213
				C79.31,325.536,79.049,325.646,78.806,325.862z"/>
		</g>
		<path style="fill:#D0CD9C;" d="M142,308.357c-1.904,0.061-8.463,4.259-9.486,4.025c-1.025-0.232-3.689-1.946-3.639-2.809
			c0.05-0.859,0.449-3.321-0.162-4.981c-0.15-0.411-0.492-1.038-0.951-1.774c0.194,0.016,0.42-0.033,0.661-0.25
			c0.74-0.658-1.71-5.721-3.015-5.35c-0.639,0.185-0.845,0.662-0.863,1.168c-0.816-0.988-1.619-1.858-2.27-2.416
			c-2.07-1.764-6.768-3.013-10.514,0.318c-3.747,3.329-3.051,8.138-1.541,10.401c0.477,0.71,1.249,1.609,2.137,2.534
			c-0.506-0.042-1.003,0.106-1.26,0.723c-0.523,1.248,4.219,4.274,4.959,3.619c0.241-0.216,0.319-0.433,0.326-0.63
			c0.675,0.544,1.258,0.954,1.646,1.155c1.578,0.802,4.07,0.69,4.932,0.741c0.861,0.05,2.251,2.898,2.362,3.941
			c0.112,1.046-4.823,7.067-5.106,8.952c-0.244,1.621,4.36,6.742,4.36,6.742l11.567-10.288l0,0l12.04-10.706
			C148.185,313.475,143.638,308.306,142,308.357z"/>
		
			<rect x="89.593" y="323.739" transform="matrix(0.7473 -0.6645 0.6645 0.7473 -182.2393 173.1885)" style="fill:#828F5D;" width="93.986" height="4.922"/>
	</g>
	<path style="fill:#81542F;" d="M226.297,385.831c0,4.526-3.669,8.195-8.194,8.195H45.281c-4.524,0-8.192-3.669-8.192-8.195v-80.236
		c0-4.527,3.668,6.772,8.192,6.772h172.821c4.525,0,8.194-11.3,8.194-6.772V385.831z"/>
	<path style="fill:#664324;" d="M179.753,390.982c0,0.742-0.602,1.342-1.345,1.342l0,0c-0.741,0-1.342-0.6-1.342-1.342v-72.486
		c0-0.741,0.601-1.345,1.342-1.345l0,0c0.742,0,1.345,0.604,1.345,1.345V390.982z"/>
	<path style="fill:#664324;" d="M90.884,389.906c0,0.743-0.603,1.345-1.343,1.345l0,0c-0.743,0-1.344-0.602-1.344-1.345v-72.484
		c0-0.742,0.601-1.346,1.344-1.346l0,0c0.74,0,1.343,0.603,1.343,1.346V389.906z"/>
	<rect x="109.904" y="320.777" style="fill:#664324;" width="50.368" height="65.265"/>
	<rect x="112.531" y="324.181" style="fill:#45BABD;" width="45.115" height="58.458"/>
	<polygon style="fill:#80C8C0;" points="114.778,379.727 114.778,327.092 155.398,327.092 	"/>
	<rect x="178.408" y="331.333" style="fill:#664324;" width="41.962" height="2.154"/>
	<rect x="178.408" y="323.103" style="fill:#664324;" width="41.962" height="2.154"/>
	<g>
		<path style="fill:#E0E0E0;" d="M219.013,332.804V320.35c0-1.455-1.181-2.637-2.635-2.637h-28.544
			c-1.454,0-2.635,1.182-2.635,2.637v12.454H219.013z"/>
	</g>
	<g>
		<path style="fill:#EDEDED;" d="M217.154,332.804v-11.087c0-1.295-1.049-2.346-2.346-2.346h-25.406
			c-1.295,0-2.345,1.051-2.345,2.346v11.087H217.154z"/>
	</g>
	<rect x="178.408" y="341.725" style="fill:#664324;" width="41.962" height="2.153"/>
	<g>
		<path style="fill:#F59A33;" d="M216.88,342.135v-12.456c0-1.455-1.181-2.636-2.636-2.636h-28.543
			c-1.454,0-2.633,1.181-2.633,2.636v12.456H216.88z"/>
		<path style="fill:#F9B233;" d="M215.395,342.135v-11.361c0-1.327-1.076-2.404-2.403-2.404h-26.036
			c-1.327,0-2.402,1.077-2.402,2.404v11.361H215.395z"/>
		<rect x="202.105" y="328.369" style="fill:#352E35;" width="8.226" height="13.766"/>
	</g>
	<rect x="47.613" y="325.794" style="fill:#664324;" width="41.959" height="2.155"/>
	<g>
		<path style="fill:#E0E0E0;" d="M48.971,335.494v-12.455c0-1.455,1.181-2.637,2.635-2.637h28.541c1.457,0,2.637,1.182,2.637,2.637
			v12.455H48.971z"/>
	</g>
	<g>
		<path style="fill:#EDEDED;" d="M50.828,335.494v-11.087c0-1.296,1.051-2.344,2.345-2.344h25.408c1.294,0,2.344,1.048,2.344,2.344
			v11.087H50.828z"/>
	</g>
	<rect x="47.613" y="334.023" style="fill:#664324;" width="41.959" height="2.153"/>
	<g>
		<path style="fill:#E0E0E0;" d="M50.828,344.896v-12.454c0-1.457,1.18-2.636,2.636-2.636h28.542c1.456,0,2.634,1.179,2.634,2.636
			v12.454H50.828z"/>
	</g>
	<g>
		<path style="fill:#EDEDED;" d="M52.686,344.896v-11.085c0-1.296,1.05-2.348,2.346-2.348h25.405c1.296,0,2.347,1.052,2.347,2.348
			v11.085H52.686z"/>
	</g>
	<rect x="47.613" y="344.414" style="fill:#664324;" width="41.959" height="2.155"/>
</g>
</svg>
